<?xml version="1.0" encoding="UTF-8" standalone="no"?>
<!-- Uploaded to: SVG Repo, www.svgrepo.com, Generator: SVG Repo Mixer Tools -->

<svg
   width="902.79974"
   height="224.86729"
   viewBox="0 0 144.44796 35.978767"
   data-name="Layer 1"
   id="Layer_1"
   version="1.1"
   sodipodi:docname="ganip avatar-man-muslim-svgrepo-com.svg"
   inkscape:version="1.2.2 (732a01da63, 2022-12-09)"
   xml:space="preserve"
   inkscape:export-filename="surat.svg"
   inkscape:export-xdpi="96"
   inkscape:export-ydpi="96"
   xmlns:inkscape="http://www.inkscape.org/namespaces/inkscape"
   xmlns:sodipodi="http://sodipodi.sourceforge.net/DTD/sodipodi-0.dtd"
   xmlns="http://www.w3.org/2000/svg"
   xmlns:svg="http://www.w3.org/2000/svg"><sodipodi:namedview
     id="namedview361"
     pagecolor="#505050"
     bordercolor="#eeeeee"
     borderopacity="1"
     inkscape:showpageshadow="0"
     inkscape:pageopacity="0"
     inkscape:pagecheckerboard="0"
     inkscape:deskcolor="#505050"
     showgrid="false"
     inkscape:zoom="0.71064232"
     inkscape:cx="512.21267"
     inkscape:cy="476.32964"
     inkscape:window-width="1920"
     inkscape:window-height="991"
     inkscape:window-x="-9"
     inkscape:window-y="-9"
     inkscape:window-maximized="1"
     inkscape:current-layer="Layer_1" /><defs
     id="defs302"><style
       id="style300">.cls-1,.cls-14{fill:#515570;}.cls-2{fill:#6b718e;}.cls-3{fill:#ffffff;}.cls-11,.cls-4,.cls-9{fill:#393c54;}.cls-4{opacity:0.2;}.cls-5{fill:#a7aece;}.cls-10,.cls-12,.cls-6,.cls-8{fill:none;stroke-linecap:round;}.cls-12,.cls-6{stroke:#fba875;stroke-miterlimit:10;}.cls-6{stroke-width:18px;}.cls-7{fill:#ffbb94;}.cls-8{stroke:#515570;}.cls-10,.cls-8{stroke-linejoin:round;stroke-width:2px;}.cls-14,.cls-8{opacity:0.4;}.cls-13,.cls-9{opacity:0.1;}.cls-10{stroke:#f85565;}.cls-12{stroke-width:6px;}.cls-13{fill:#356cb6;}</style></defs><title
     id="title304" /><g
     id="g110844"
     transform="translate(2.8497518,-112.74737)"><path
       class="cls-3"
       d="m 179.48144,132.46 c 13.60043,0.0253 14.86777,4.25037 25.02995,-5.5 l -2.03948,-21.41 c -1.58523,-4 -6.0422,-5.05298 -10.46623,-6.64 L 178.69186,94.133961 166.95719,98.91 c -4.35331,1.77181 -8.881,2.66 -10.46623,6.64 l -2.03948,21.41 c 10.16219,9.75037 11.42952,5.52532 25.02996,5.5 z"
       id="path66858"
       sodipodi:nodetypes="cccscsccc"
       style="stroke-width:0.962827" /><polygon
       class="cls-5"
       points="53.22,95.47 74.78,95.47 74,100.95 54,100.95 "
       id="polygon66860"
       transform="matrix(0.85672372,0,0,0.73557577,124.59483,23.959293)" /><path
       class="cls-5"
       d="m 179.2,131.45 h 1 V 107 c 0,-1.33333 -2,-1.33333 -2,0 v 24.4 z"
       id="path66862"
       sodipodi:nodetypes="ccsscc" /><path
       style="fill:#e5ac8c;fill-opacity:1;stroke:none;stroke-width:1.10594;stroke-linecap:round;stroke-linejoin:round;stroke-dasharray:none;stroke-dashoffset:30.918;stroke-opacity:1"
       d="m 172.89112,91.033252 -0.27827,8.873715 1.57683,2.039943 4.35948,1.73394 4.63774,-0.81597 2.50438,-2.34593 0.0928,-10.403669 -5.93631,-1.631948 z"
       id="path66864" /><path
       class="cls-7"
       d="m 179.2,94.046368 c -11.38224,0.003 -21.1971,-5.0156 -25.69718,-12.254504 -1.68453,-2.70976 -1.19149,-4.53661 -1.18998,-7.721671 L 150.88,63.442265 c -1.56216,-11.587161 12.6793,-21.170197 28.32,-21.170197 15.6407,0 29.59702,9.548156 28.32,21.170197 l -1.19403,10.866734 c 10e-4,3.052636 0.96908,4.521624 -0.58573,7.143273 -4.40119,7.421065 -14.98085,12.597149 -26.54024,12.594096 z"
       id="path66866"
       style="stroke-width:0.864601"
       sodipodi:nodetypes="cscssscsc" /><path
       class="cls-3"
       d="m 179.42515,100.64307 a 9.4239612,8.0913334 0 0 1 -9.23548,-6.47307 9.7666504,8.3855637 0 0 0 -0.18848,1.618267 9.4239615,8.0913337 0 0 0 18.84792,0 9.7666504,8.3855637 0 0 0 -0.18848,-1.618267 9.4239612,8.0913334 0 0 1 -9.23548,6.47307 z"
       id="path66868"
       style="stroke-width:0.793842" /><path
       class="cls-9"
       d="m 179.42515,102.24307 a 9.4239612,8.0913334 0 0 1 -9.23548,-6.47307 9.7666504,8.3855637 0 0 0 -0.18848,1.618267 9.4239615,8.0913337 0 0 0 18.84792,0 9.7666504,8.3855637 0 0 0 -0.18848,-1.618267 9.4239612,8.0913334 0 0 1 -9.23548,6.47307 z"
       id="path66870"
       style="stroke-width:0.793842" /><circle
       class="cls-1"
       cx="183.19989"
       cy="113.95"
       r="1.5"
       id="circle66872" /><circle
       class="cls-1"
       cx="183.19989"
       cy="120.95"
       r="1.5"
       id="circle66874" /><path
       class="cls-13"
       d="m 162.17,99.28 a 12.7,12.7 0 0 0 -10.08,4.59 l 11.94,6 a 1,1 0 0 0 1.45,-0.89 v -9.7 z"
       id="path66876" /><path
       class="cls-13"
       d="m 194.95,98.96 h -5.31 v 9.67 a 1,1 0 0 0 1.45,0.89 l 13.35,-6.67 a 13,13 0 0 0 -9.49,-3.89 z"
       id="path66878" /><path
       style="fill:none;stroke:#4d4d4d;stroke-width:2.4;stroke-linecap:round;stroke-linejoin:round;stroke-dasharray:none;stroke-dashoffset:4.94688;stroke-opacity:1"
       d="m 188.85025,73.689175 c 3.18775,-8.650334 9.45278,-7.296494 12.24192,0.08264"
       id="path66888"
       sodipodi:nodetypes="cc" /><path
       style="fill:none;stroke:#4d4d4d;stroke-width:2.4;stroke-linecap:round;stroke-linejoin:round;stroke-dasharray:none;stroke-dashoffset:4.94688;stroke-opacity:1"
       d="m 168.78074,73.835192 c -2.89618,-8.459797 -8.56043,-6.635998 -11.61376,0.111194"
       id="path66900"
       sodipodi:nodetypes="cc" /><path
       class="cls-3"
       d="m 215.79295,55.903909 c 0,-3.339949 1.50286,-5.452588 0.75877,-7.966038 -0.80626,-2.723462 -3.92646,-5.808684 -5.66903,-8.486137 -2.2962,-3.528122 -5.50413,-8.494656 -9.34675,-10.711198 -5.87141,-3.386812 -14.35177,-4.639762 -22.10359,-4.639762 -1.01512,0 -5.41143,-3.616374 -6.8487,-3.592601 -1.11427,0.01844 0.71739,3.671259 -0.12998,3.70938 -6.53921,0.294182 -12.13697,1.24488 -16.78089,3.935939 -0.78886,0.45713 4.58075,1.200521 3.87101,1.727599 -2.8868,2.143843 -10.09286,4.811494 -12.82983,7.862013 -2.00639,2.236248 -4.97691,6.712828 -5.52462,9.305058 -0.72091,3.412035 1.35039,5.049767 1.35039,8.855747 v 0 4.44241 c 3.81171,-0.621871 13.71403,1.52416 18.43253,-8.879647 8.98026,7.571822 11.32978,11.21624 17.89028,11.057478 1.525,-2.97745 0.54164,-4.213495 -1.62481,-8.84055 4.74268,5.270627 7.04523,6.328185 11.42456,6.759911 0.3706,-3.775442 0.64337,-4.187727 0.47478,-6.702266 1.7067,3.124438 10.58957,3.449795 11.9724,4.215292 0.82634,0.45744 -0.3768,-2.676717 -0.3768,-2.676717 0,0 7.18585,9.626728 9.08708,10.334551 2.76469,1.029286 5.9732,-5.268052 5.9732,-5.268052 z"
       id="path66904"
       sodipodi:nodetypes="sssssssssssscccccccscscs"
       style="fill:#333333;fill-opacity:1;stroke-width:1.14549" /><path
       class="cls-3"
       d="m 147.32993,52.653935 c -5.75636,12.769354 0.34617,14.416829 0.34617,14.416829 l 1.0896,5.912778 2.43982,3.444775 c 0,0 0.19335,-5.227079 2.16338,-7.195147 3.69574,-3.692051 1.22146,-11.340779 3.08636,-14.774763 -3.49194,-2.071317 -5.88736,-3.191732 -9.12533,-1.804472 z"
       id="path66906"
       sodipodi:nodetypes="ccccscc"
       style="fill:#333333;fill-opacity:1" /><path
       class="cls-3"
       d="m 210.8887,52.991658 c 3.5275,11.01811 -0.59063,13.665782 -0.59063,13.665782 l -1.44846,8.439301 c 0,0 -4.01197,-2.817164 -3.13226,-5.459218 2.28572,-6.864724 -2.08908,-11.407409 -3.95397,-14.841393 3.49194,-2.071317 5.88736,-3.191732 9.12532,-1.804472 z"
       id="path66908"
       sodipodi:nodetypes="cccscc"
       style="fill:#333333;fill-opacity:1" /><path
       style="fill:none;stroke:#1a1a1a;stroke-width:1.28;stroke-linecap:round;stroke-linejoin:round;stroke-dasharray:none;stroke-dashoffset:4.94688;stroke-opacity:1"
       d="m 190.23071,58.723049 c 1.76617,-1.649231 7.59402,-1.226644 8.78079,0.39401"
       id="path66910"
       sodipodi:nodetypes="cc" /><path
       style="fill:none;stroke:#1a1a1a;stroke-width:1.28;stroke-linecap:round;stroke-linejoin:round;stroke-dasharray:none;stroke-dashoffset:4.94688;stroke-opacity:1"
       d="m 167.49072,58.160178 c -1.76616,-1.649231 -7.59401,-1.226644 -8.78079,0.39401"
       id="path66912"
       sodipodi:nodetypes="cc" /><path
       class="cls-7"
       d="m 179.42442,92.844455 c -5.11905,-0.216574 -5.6741,-2.671637 -6.33905,-4.446755 -0.001,-1.462412 2.99286,-0.441634 6.6136,-0.245239 2.81359,0.152614 4.36683,-1.334398 4.92511,-0.126672 0.66566,2.067443 -0.32998,4.272365 -5.19966,4.818666 z"
       id="path66914"
       style="fill:#ff8080;stroke-width:0.117018"
       sodipodi:nodetypes="ccscc" /><path
       style="fill:none;stroke:#e6e6e6;stroke-width:1.28;stroke-linecap:round;stroke-linejoin:round;stroke-dasharray:none;stroke-dashoffset:4.94688;stroke-opacity:1"
       d="m 163.1708,132.97355 c 1.23995,-1.0513 1.53157,-12.44465 1.53157,-12.44465"
       id="path101986"
       sodipodi:nodetypes="cc" /><path
       style="fill:none;stroke:#e6e6e6;stroke-width:1.28;stroke-linecap:round;stroke-linejoin:round;stroke-dasharray:none;stroke-dashoffset:4.94688;stroke-opacity:1"
       d="m 196.70237,132.97355 c -1.23995,-1.0513 -1.53157,-12.44465 -1.53157,-12.44465"
       id="path101988"
       sodipodi:nodetypes="cc" /></g><path
     id="path14586"
     style="opacity:0.405117;fill:#aa31c1;fill-opacity:1;stroke-width:1.28;stroke-linecap:round;stroke-linejoin:round;stroke-dashoffset:30.918"
     d="M 4.5857544e-7,5.1431921 C 4.5857544e-7,5.1431921 12.47488,26.708612 24.943949,24.317172 37.413017,21.925742 47.511535,8.5704921 60.528535,3.6642721 c 14.333699,-5.40248 27.589783,-3.64232996 34.981164,-2.16196 14.103791,2.82477 47.928451,25.4750399 48.732431,16.2292999 l 0.20584,10.01797 c 0,0 -10.1727,4.35658 -23.13454,4.37868 -24.837581,0.0424 -25.939913,-11.90651 -47.415691,-10.0576 -12.888139,1.10958 -27.821315,13.83025 -43.469341,13.9074 -15.403975,0.076 -29.47317364,-5.99906 -29.47317364,-5.99906 z"
     sodipodi:nodetypes="czssccssscc"
     inkscape:export-filename="wave02.svg"
     inkscape:export-xdpi="96"
     inkscape:export-ydpi="96" /></svg>
